<svg xmlns="http://www.w3.org/2000/svg" width="512" height="512" viewBox="0 0 512 512">
  <defs>
    <linearGradient id="background" x1="0" y1="0" x2="1" y2="1">
      <stop offset="0" stop-color="#536dfe"/>
      <stop offset="1" stop-color="#7c4dff"/>
    </linearGradient>
  </defs>
  <rect width="512" height="512" rx="112" fill="url(#background)"/>
  <circle cx="256" cy="270" r="142" fill="#fff8ed"/>
  <circle cx="203" cy="253" r="14" fill="#33314d"/>
  <circle cx="309" cy="253" r="14" fill="#33314d"/>
  <path d="M219 310c21 22 53 22 74 0" fill="none" stroke="#33314d" stroke-width="14" stroke-linecap="round"/>
  <path d="M172 175c-35-55 44-81 79-19" fill="#fff8ed"/>
  <path d="M340 175c35-55-44-81-79-19" fill="#fff8ed"/>
  <path d="M350 86c-1 58-48 105-106 105-24 0-47-8-65-22 22 42 66 71 117 71 73 0 132-59 132-132 0-21-5-41-14-59-16 21-39 35-64 37z" fill="#ffdc73"/>
</svg>
