<svg xmlns="http://www.w3.org/2000/svg" width="1000" height="400" viewBox="0 0 1000 400">
  <defs>
    <linearGradient id="background" x1="0" y1="0" x2="1" y2="1">
      <stop offset="0" stop-color="#536dfe"/>
      <stop offset="1" stop-color="#7c4dff"/>
    </linearGradient>
  </defs>
  <rect width="1000" height="400" rx="72" fill="url(#background)"/>
  <circle cx="198" cy="211" r="118" fill="#fff8ed"/>
  <circle cx="155" cy="198" r="12" fill="#33314d"/>
  <circle cx="241" cy="198" r="12" fill="#33314d"/>
  <path d="M167 246c17 18 45 18 62 0" fill="none" stroke="#33314d" stroke-width="12" stroke-linecap="round"/>
  <path d="M130 133c-29-46 37-67 66-16" fill="#fff8ed"/>
  <path d="M266 133c29-46-37-67-66-16" fill="#fff8ed"/>
  <path d="M276 59c-1 49-40 87-88 87-20 0-39-6-54-18 18 35 55 59 97 59 61 0 110-49 110-110 0-18-4-34-12-49-13 17-32 29-53 31z" fill="#ffdc73"/>
  <text x="380" y="190" fill="white" font-family="-apple-system,BlinkMacSystemFont,'Segoe UI',sans-serif" font-size="76" font-weight="700">Baby Monitor</text>
  <text x="384" y="255" fill="#e8e8ff" font-family="-apple-system,BlinkMacSystemFont,'Segoe UI',sans-serif" font-size="32" font-weight="500">for Home Assistant</text>
</svg>
